# xmcd
#
# Track frame offsets: 
#        150
#        13764
#        31156
#        47397
#        61745
#        76337
#        95526
#        115098
#        143856
#        170291
#        184910
#        202348
#        225412
#        251640
#        265749
#        280234
#        294243
#        306580
#        323829
#        337891
#
# Disc length: 4709 seconds
#
# Revision: 1
# Processed by: cddbd v1.5.2PL0 Copyright (c) Steve Scherf et al.
# Submitted via: ExactAudioCopyFreeDBPlugin 1.0
#
DISCID=15126314
DTITLE=Various Artist - Clubland 25 [CD2)
DYEAR=2014
DGENRE=Club
TTITLE0=Sigma - Nobody To Love
TTITLE1=Fuse ODG feat Sean Paul - Dangerous Love
TTITLE2=Cash Cash feat Bebe Rexha - Take Me Home (Jordy Dazz Remix Rad
TTITLE2=io Edit)
TTITLE3=Calvin Harris and Alesso feat Hurts - Under Control
TTITLE4=Duke Dumont feat Jax Jones - I Got You
TTITLE5=Route 94 feat Jess Glynne - My Love
TTITLE6=Avicii - Hey Brother
TTITLE7=Katy Perry feat Juicy J - Dark Horse (Manhattan Clique Radio E
TTITLE7=dit)
TTITLE8=Bastille - Pompeii (Audien Remix)
TTITLE9=R3hab and Nervo and Ummet Ozcan - Revolution
TTITLE10=Deorro feat J-Trick - Rambo (Hardwell Edit)
TTITLE11=New World Sound and Thomas Newson - Flute (Danny Howard Remix)
TTITLE12=Gorgon City feat MNEK - Ready For Your Love (Etherwood Remix)
TTITLE13=Juun feat Sam Smith - When It's Alright (Juun Radio Edit)
TTITLE14=Duck Sauce - NRG
TTITLE15=The Chainsmokers - #Selfie
TTITLE16=Holly Hagan - Milkshake
TTITLE17=Cascada - Blink
TTITLE18=Sosumi - Locked Out Of Heaven
TTITLE19=Matin Garrix feat Jay Hardway - Wizard
EXTD=
EXTT0=
EXTT1=
EXTT2=
EXTT3=
EXTT4=
EXTT5=
EXTT6=
EXTT7=
EXTT8=
EXTT9=
EXTT10=
EXTT11=
EXTT12=
EXTT13=
EXTT14=
EXTT15=
EXTT16=
EXTT17=
EXTT18=
EXTT19=
PLAYORDER=
